<svg width="86" height="78" viewBox="0 0 86 78" fill="none" xmlns="http://www.w3.org/2000/svg">
<g opacity="0.3">
<mask id="mask0_1_11" style="mask-type:alpha" maskUnits="userSpaceOnUse" x="0" y="0" width="8" height="8">
<path d="M7.31925 3.98865C7.31925 5.92487 5.78332 7.47735 3.90962 7.47735C2.03593 7.47735 0.5 5.92487 0.5 3.98865C0.5 2.05244 2.03592 0.5 3.90962 0.5C5.78332 0.5 7.31925 2.05244 7.31925 3.98865Z" fill="url(#paint0_linear_1_11)" stroke="black"/>
</mask>
<g mask="url(#mask0_1_11)">
<path d="M7.31925 3.98865C7.31925 5.92487 5.78332 7.47735 3.90962 7.47735C2.03593 7.47735 0.5 5.92487 0.5 3.98865C0.5 2.05244 2.03592 0.5 3.90962 0.5C5.78332 0.5 7.31925 2.05244 7.31925 3.98865Z" fill="url(#paint1_linear_1_11)" stroke="black"/>
</g>
<mask id="mask1_1_11" style="mask-type:alpha" maskUnits="userSpaceOnUse" x="22" y="0" width="9" height="8">
<path d="M29.9621 3.98865C29.9621 5.92487 28.4262 7.47735 26.5525 7.47735C24.6788 7.47735 23.1429 5.92487 23.1429 3.98865C23.1429 2.05244 24.6788 0.5 26.5525 0.5C28.4262 0.5 29.9621 2.05244 29.9621 3.98865Z" fill="url(#paint2_linear_1_11)" stroke="black"/>
</mask>
<g mask="url(#mask1_1_11)">
<path d="M29.9625 3.98865C29.9625 5.92487 28.4266 7.47735 26.5529 7.47735C24.6792 7.47735 23.1432 5.92487 23.1432 3.98865C23.1432 2.05244 24.6792 0.5 26.5529 0.5C28.4266 0.5 29.9625 2.05244 29.9625 3.98865Z" fill="url(#paint3_linear_1_11)" stroke="black"/>
</g>
<mask id="mask2_1_11" style="mask-type:alpha" maskUnits="userSpaceOnUse" x="45" y="0" width="9" height="8">
<path d="M52.605 3.98865C52.605 5.92487 51.069 7.47735 49.1953 7.47735C47.3216 7.47735 45.7857 5.92487 45.7857 3.98865C45.7857 2.05244 47.3216 0.5 49.1953 0.5C51.069 0.5 52.605 2.05244 52.605 3.98865Z" fill="url(#paint4_linear_1_11)" stroke="black"/>
</mask>
<g mask="url(#mask2_1_11)">
<path d="M52.6056 3.98865C52.6056 5.92487 51.0697 7.47735 49.196 7.47735C47.3223 7.47735 45.7864 5.92487 45.7864 3.98865C45.7864 2.05244 47.3223 0.5 49.196 0.5C51.0697 0.5 52.6056 2.05244 52.6056 3.98865Z" fill="url(#paint5_linear_1_11)" stroke="black"/>
</g>
<mask id="mask3_1_11" style="mask-type:alpha" maskUnits="userSpaceOnUse" x="67" y="0" width="9" height="8">
<path d="M75.2478 3.98865C75.2478 5.92487 73.7119 7.47735 71.8382 7.47735C69.9645 7.47735 68.4285 5.92487 68.4285 3.98865C68.4285 2.05244 69.9645 0.5 71.8382 0.5C73.7119 0.5 75.2478 2.05244 75.2478 3.98865Z" fill="url(#paint6_linear_1_11)" stroke="black"/>
</mask>
<g mask="url(#mask3_1_11)">
<path d="M75.2484 3.98865C75.2484 5.92487 73.7125 7.47735 71.8388 7.47735C69.9651 7.47735 68.4291 5.92487 68.4291 3.98865C68.4291 2.05244 69.9651 0.5 71.8388 0.5C73.7125 0.5 75.2484 2.05244 75.2484 3.98865Z" fill="url(#paint7_linear_1_11)" stroke="black"/>
</g>
<mask id="mask4_1_11" style="mask-type:alpha" maskUnits="userSpaceOnUse" x="0" y="20" width="8" height="9">
<path d="M7.31925 24.015C7.31925 25.9512 5.78333 27.5037 3.90962 27.5037C2.03592 27.5037 0.5 25.9512 0.5 24.015C0.5 22.0788 2.03592 20.5264 3.90962 20.5264C5.78333 20.5264 7.31925 22.0788 7.31925 24.015Z" fill="url(#paint8_linear_1_11)" stroke="black"/>
</mask>
<g mask="url(#mask4_1_11)">
<path d="M7.31925 24.0151C7.31925 25.9513 5.78333 27.5037 3.90962 27.5037C2.03592 27.5037 0.5 25.9513 0.5 24.0151C0.5 22.0789 2.03592 20.5265 3.90962 20.5265C5.78333 20.5265 7.31925 22.0789 7.31925 24.0151Z" fill="url(#paint9_linear_1_11)" stroke="black"/>
</g>
<mask id="mask5_1_11" style="mask-type:alpha" maskUnits="userSpaceOnUse" x="22" y="20" width="9" height="9">
<path d="M29.9621 24.0151C29.9621 25.9513 28.4262 27.5038 26.5525 27.5038C24.6788 27.5038 23.1429 25.9513 23.1429 24.0151C23.1429 22.0789 24.6788 20.5265 26.5525 20.5265C28.4262 20.5265 29.9621 22.0789 29.9621 24.0151Z" fill="url(#paint10_linear_1_11)" stroke="black"/>
</mask>
<g mask="url(#mask5_1_11)">
<path d="M29.9625 24.0151C29.9625 25.9513 28.4266 27.5037 26.5529 27.5037C24.6792 27.5037 23.1432 25.9513 23.1432 24.0151C23.1432 22.0789 24.6792 20.5264 26.5529 20.5264C28.4266 20.5264 29.9625 22.0789 29.9625 24.0151Z" fill="url(#paint11_linear_1_11)" stroke="black"/>
</g>
<mask id="mask6_1_11" style="mask-type:alpha" maskUnits="userSpaceOnUse" x="45" y="20" width="9" height="9">
<path d="M52.605 24.0151C52.605 25.9513 51.069 27.5038 49.1953 27.5038C47.3216 27.5038 45.7857 25.9513 45.7857 24.0151C45.7857 22.0789 47.3216 20.5265 49.1953 20.5265C51.069 20.5265 52.605 22.0789 52.605 24.0151Z" fill="url(#paint12_linear_1_11)" stroke="black"/>
</mask>
<g mask="url(#mask6_1_11)">
<path d="M52.6056 24.0151C52.6056 25.9513 51.0697 27.5037 49.196 27.5037C47.3223 27.5037 45.7864 25.9513 45.7864 24.0151C45.7864 22.0789 47.3223 20.5264 49.196 20.5264C51.0697 20.5264 52.6056 22.0789 52.6056 24.0151Z" fill="url(#paint13_linear_1_11)" stroke="black"/>
</g>
<mask id="mask7_1_11" style="mask-type:alpha" maskUnits="userSpaceOnUse" x="67" y="20" width="9" height="9">
<path d="M75.2478 24.0151C75.2478 25.9513 73.7119 27.5038 71.8382 27.5038C69.9645 27.5038 68.4285 25.9513 68.4285 24.0151C68.4285 22.0789 69.9645 20.5265 71.8382 20.5265C73.7119 20.5265 75.2478 22.0789 75.2478 24.0151Z" fill="url(#paint14_linear_1_11)" stroke="black"/>
</mask>
<g mask="url(#mask7_1_11)">
<path d="M75.2484 24.0151C75.2484 25.9513 73.7125 27.5037 71.8388 27.5037C69.9651 27.5037 68.4291 25.9513 68.4291 24.0151C68.4291 22.0789 69.9651 20.5264 71.8388 20.5264C73.7125 20.5264 75.2484 22.0789 75.2484 24.0151Z" fill="url(#paint15_linear_1_11)" stroke="black"/>
</g>
<mask id="mask8_1_11" style="mask-type:alpha" maskUnits="userSpaceOnUse" x="0" y="40" width="8" height="8">
<path d="M7.31925 44C7.31925 45.9362 5.78332 47.4887 3.90962 47.4887C2.03593 47.4887 0.5 45.9362 0.5 44C0.5 42.0638 2.03593 40.5113 3.90962 40.5113C5.78332 40.5113 7.31925 42.0638 7.31925 44Z" fill="url(#paint16_linear_1_11)" stroke="black"/>
</mask>
<g mask="url(#mask8_1_11)">
<path d="M7.31925 44.0001C7.31925 45.9363 5.78332 47.4888 3.90962 47.4888C2.03593 47.4888 0.5 45.9363 0.5 44.0001C0.5 42.0639 2.03593 40.5114 3.90962 40.5114C5.78332 40.5114 7.31925 42.0639 7.31925 44.0001Z" fill="url(#paint17_linear_1_11)" stroke="black"/>
</g>
<mask id="mask9_1_11" style="mask-type:alpha" maskUnits="userSpaceOnUse" x="22" y="40" width="9" height="8">
<path d="M29.9621 44.0003C29.9621 45.9365 28.4262 47.4889 26.5525 47.4889C24.6788 47.4889 23.1429 45.9365 23.1429 44.0003C23.1429 42.064 24.6788 40.5116 26.5525 40.5116C28.4262 40.5116 29.9621 42.064 29.9621 44.0003Z" fill="url(#paint18_linear_1_11)" stroke="black"/>
</mask>
<g mask="url(#mask9_1_11)">
<path d="M29.9625 44.0001C29.9625 45.9363 28.4266 47.4888 26.5529 47.4888C24.6792 47.4888 23.1432 45.9363 23.1432 44.0001C23.1432 42.0639 24.6792 40.5114 26.5529 40.5114C28.4266 40.5114 29.9625 42.0639 29.9625 44.0001Z" fill="url(#paint19_linear_1_11)" stroke="black"/>
</g>
<mask id="mask10_1_11" style="mask-type:alpha" maskUnits="userSpaceOnUse" x="45" y="40" width="9" height="8">
<path d="M52.605 44.0003C52.605 45.9365 51.069 47.4889 49.1953 47.4889C47.3216 47.4889 45.7857 45.9365 45.7857 44.0003C45.7857 42.064 47.3216 40.5116 49.1953 40.5116C51.069 40.5116 52.605 42.064 52.605 44.0003Z" fill="url(#paint20_linear_1_11)" stroke="black"/>
</mask>
<g mask="url(#mask10_1_11)">
<path d="M52.6056 44.0001C52.6056 45.9363 51.0697 47.4888 49.196 47.4888C47.3223 47.4888 45.7864 45.9363 45.7864 44.0001C45.7864 42.0639 47.3223 40.5114 49.196 40.5114C51.0697 40.5114 52.6056 42.0639 52.6056 44.0001Z" fill="url(#paint21_linear_1_11)" stroke="black"/>
</g>
<mask id="mask11_1_11" style="mask-type:alpha" maskUnits="userSpaceOnUse" x="67" y="40" width="9" height="8">
<path d="M75.2478 44.0003C75.2478 45.9365 73.7119 47.4889 71.8382 47.4889C69.9645 47.4889 68.4285 45.9365 68.4285 44.0003C68.4285 42.064 69.9645 40.5116 71.8382 40.5116C73.7119 40.5116 75.2478 42.064 75.2478 44.0003Z" fill="url(#paint22_linear_1_11)" stroke="black"/>
</mask>
<g mask="url(#mask11_1_11)">
<path d="M75.2484 44.0001C75.2484 45.9363 73.7125 47.4888 71.8388 47.4888C69.9651 47.4888 68.4291 45.9363 68.4291 44.0001C68.4291 42.0639 69.9651 40.5114 71.8388 40.5114C73.7125 40.5114 75.2484 42.0639 75.2484 44.0001Z" fill="url(#paint23_linear_1_11)" stroke="black"/>
</g>
<mask id="mask12_1_11" style="mask-type:alpha" maskUnits="userSpaceOnUse" x="0" y="60" width="8" height="9">
<path d="M7.31925 64.0268C7.31925 65.963 5.78332 67.5155 3.90962 67.5155C2.03593 67.5155 0.5 65.963 0.5 64.0268C0.5 62.0906 2.03592 60.5381 3.90962 60.5381C5.78332 60.5381 7.31925 62.0906 7.31925 64.0268Z" fill="url(#paint24_linear_1_11)" stroke="black"/>
</mask>
<g mask="url(#mask12_1_11)">
<path d="M7.31925 64.0265C7.31925 65.9627 5.78332 67.5152 3.90962 67.5152C2.03593 67.5152 0.5 65.9627 0.5 64.0265C0.5 62.0903 2.03592 60.5379 3.90962 60.5379C5.78332 60.5379 7.31925 62.0903 7.31925 64.0265Z" fill="url(#paint25_linear_1_11)" stroke="black"/>
</g>
<mask id="mask13_1_11" style="mask-type:alpha" maskUnits="userSpaceOnUse" x="22" y="60" width="9" height="9">
<path d="M29.9621 64.0268C29.9621 65.963 28.4262 67.5155 26.5525 67.5155C24.6788 67.5155 23.1429 65.963 23.1429 64.0268C23.1429 62.0906 24.6788 60.5381 26.5525 60.5381C28.4262 60.5381 29.9621 62.0906 29.9621 64.0268Z" fill="url(#paint26_linear_1_11)" stroke="black"/>
</mask>
<g mask="url(#mask13_1_11)">
<path d="M29.9625 64.0265C29.9625 65.9627 28.4266 67.5152 26.5529 67.5152C24.6792 67.5152 23.1432 65.9627 23.1432 64.0265C23.1432 62.0903 24.6792 60.5379 26.5529 60.5379C28.4266 60.5379 29.9625 62.0903 29.9625 64.0265Z" fill="url(#paint27_linear_1_11)" stroke="black"/>
</g>
<mask id="mask14_1_11" style="mask-type:alpha" maskUnits="userSpaceOnUse" x="45" y="60" width="9" height="9">
<path d="M52.605 64.0268C52.605 65.963 51.069 67.5155 49.1953 67.5155C47.3216 67.5155 45.7857 65.963 45.7857 64.0268C45.7857 62.0906 47.3216 60.5381 49.1953 60.5381C51.069 60.5381 52.605 62.0906 52.605 64.0268Z" fill="url(#paint28_linear_1_11)" stroke="black"/>
</mask>
<g mask="url(#mask14_1_11)">
<path d="M52.6056 64.0265C52.6056 65.9627 51.0697 67.5152 49.196 67.5152C47.3223 67.5152 45.7864 65.9627 45.7864 64.0265C45.7864 62.0903 47.3223 60.5379 49.196 60.5379C51.0697 60.5379 52.6056 62.0903 52.6056 64.0265Z" fill="url(#paint29_linear_1_11)" stroke="black"/>
</g>
<mask id="mask15_1_11" style="mask-type:alpha" maskUnits="userSpaceOnUse" x="67" y="60" width="9" height="9">
<path d="M75.2478 64.0268C75.2478 65.963 73.7119 67.5155 71.8382 67.5155C69.9645 67.5155 68.4285 65.963 68.4285 64.0268C68.4285 62.0906 69.9645 60.5381 71.8382 60.5381C73.7119 60.5381 75.2478 62.0906 75.2478 64.0268Z" fill="url(#paint30_linear_1_11)" stroke="black"/>
</mask>
<g mask="url(#mask15_1_11)">
<path d="M75.2484 64.0265C75.2484 65.9627 73.7125 67.5152 71.8388 67.5152C69.9651 67.5152 68.4291 65.9627 68.4291 64.0265C68.4291 62.0903 69.9651 60.5379 71.8388 60.5379C73.7125 60.5379 75.2484 62.0903 75.2484 64.0265Z" fill="url(#paint31_linear_1_11)" stroke="black"/>
</g>
</g>
<defs>
<linearGradient id="paint0_linear_1_11" x1="38.076" y1="92.4707" x2="-17.486" y2="-45.7764" gradientUnits="userSpaceOnUse">
<stop stop-color="#FFA434"/>
<stop offset="1" stop-color="#FFA434"/>
</linearGradient>
<linearGradient id="paint1_linear_1_11" x1="38.076" y1="92.4707" x2="-17.486" y2="-45.7764" gradientUnits="userSpaceOnUse">
<stop stop-color="#FFA434"/>
<stop offset="1" stop-color="#FFA434"/>
</linearGradient>
<linearGradient id="paint2_linear_1_11" x1="60.7189" y1="92.4707" x2="5.15693" y2="-45.7764" gradientUnits="userSpaceOnUse">
<stop stop-color="#FFA434"/>
<stop offset="1" stop-color="#FFA434"/>
</linearGradient>
<linearGradient id="paint3_linear_1_11" x1="60.7193" y1="92.4707" x2="5.1573" y2="-45.7764" gradientUnits="userSpaceOnUse">
<stop stop-color="#FFA434"/>
<stop offset="1" stop-color="#FFA434"/>
</linearGradient>
<linearGradient id="paint4_linear_1_11" x1="83.3617" y1="92.4707" x2="27.7998" y2="-45.7764" gradientUnits="userSpaceOnUse">
<stop stop-color="#FFA434"/>
<stop offset="1" stop-color="#FFA434"/>
</linearGradient>
<linearGradient id="paint5_linear_1_11" x1="83.3624" y1="92.4707" x2="27.8004" y2="-45.7764" gradientUnits="userSpaceOnUse">
<stop stop-color="#FFA434"/>
<stop offset="1" stop-color="#FFA434"/>
</linearGradient>
<linearGradient id="paint6_linear_1_11" x1="106.005" y1="92.4707" x2="50.4426" y2="-45.7764" gradientUnits="userSpaceOnUse">
<stop stop-color="#FFA434"/>
<stop offset="1" stop-color="#FFA434"/>
</linearGradient>
<linearGradient id="paint7_linear_1_11" x1="106.005" y1="92.4707" x2="50.4432" y2="-45.7764" gradientUnits="userSpaceOnUse">
<stop stop-color="#FFA434"/>
<stop offset="1" stop-color="#FFA434"/>
</linearGradient>
<linearGradient id="paint8_linear_1_11" x1="38.076" y1="112.496" x2="-17.4851" y2="-25.7499" gradientUnits="userSpaceOnUse">
<stop stop-color="#FFA434"/>
<stop offset="1" stop-color="#FFA434"/>
</linearGradient>
<linearGradient id="paint9_linear_1_11" x1="38.076" y1="112.496" x2="-17.4851" y2="-25.7499" gradientUnits="userSpaceOnUse">
<stop stop-color="#FFA434"/>
<stop offset="1" stop-color="#FFA434"/>
</linearGradient>
<linearGradient id="paint10_linear_1_11" x1="60.7189" y1="112.496" x2="5.15788" y2="-25.7499" gradientUnits="userSpaceOnUse">
<stop stop-color="#FFA434"/>
<stop offset="1" stop-color="#FFA434"/>
</linearGradient>
<linearGradient id="paint11_linear_1_11" x1="60.7193" y1="112.496" x2="5.15824" y2="-25.7499" gradientUnits="userSpaceOnUse">
<stop stop-color="#FFA434"/>
<stop offset="1" stop-color="#FFA434"/>
</linearGradient>
<linearGradient id="paint12_linear_1_11" x1="83.3617" y1="112.496" x2="27.8007" y2="-25.7499" gradientUnits="userSpaceOnUse">
<stop stop-color="#FFA434"/>
<stop offset="1" stop-color="#FFA434"/>
</linearGradient>
<linearGradient id="paint13_linear_1_11" x1="83.3624" y1="112.496" x2="27.8014" y2="-25.7499" gradientUnits="userSpaceOnUse">
<stop stop-color="#FFA434"/>
<stop offset="1" stop-color="#FFA434"/>
</linearGradient>
<linearGradient id="paint14_linear_1_11" x1="106.005" y1="112.496" x2="50.4435" y2="-25.7499" gradientUnits="userSpaceOnUse">
<stop stop-color="#FFA434"/>
<stop offset="1" stop-color="#FFA434"/>
</linearGradient>
<linearGradient id="paint15_linear_1_11" x1="106.005" y1="112.496" x2="50.4441" y2="-25.7499" gradientUnits="userSpaceOnUse">
<stop stop-color="#FFA434"/>
<stop offset="1" stop-color="#FFA434"/>
</linearGradient>
<linearGradient id="paint16_linear_1_11" x1="38.076" y1="132.482" x2="-17.486" y2="-5.76507" gradientUnits="userSpaceOnUse">
<stop stop-color="#FFA434"/>
<stop offset="1" stop-color="#FFA434"/>
</linearGradient>
<linearGradient id="paint17_linear_1_11" x1="38.076" y1="132.482" x2="-17.486" y2="-5.76498" gradientUnits="userSpaceOnUse">
<stop stop-color="#FFA434"/>
<stop offset="1" stop-color="#FFA434"/>
</linearGradient>
<linearGradient id="paint18_linear_1_11" x1="60.7189" y1="132.482" x2="5.15693" y2="-5.76484" gradientUnits="userSpaceOnUse">
<stop stop-color="#FFA434"/>
<stop offset="1" stop-color="#FFA434"/>
</linearGradient>
<linearGradient id="paint19_linear_1_11" x1="60.7193" y1="132.482" x2="5.1573" y2="-5.76502" gradientUnits="userSpaceOnUse">
<stop stop-color="#FFA434"/>
<stop offset="1" stop-color="#FFA434"/>
</linearGradient>
<linearGradient id="paint20_linear_1_11" x1="83.3617" y1="132.482" x2="27.7998" y2="-5.76484" gradientUnits="userSpaceOnUse">
<stop stop-color="#FFA434"/>
<stop offset="1" stop-color="#FFA434"/>
</linearGradient>
<linearGradient id="paint21_linear_1_11" x1="83.3624" y1="132.482" x2="27.8004" y2="-5.76502" gradientUnits="userSpaceOnUse">
<stop stop-color="#FFA434"/>
<stop offset="1" stop-color="#FFA434"/>
</linearGradient>
<linearGradient id="paint22_linear_1_11" x1="106.005" y1="132.482" x2="50.4426" y2="-5.76484" gradientUnits="userSpaceOnUse">
<stop stop-color="#FFA434"/>
<stop offset="1" stop-color="#FFA434"/>
</linearGradient>
<linearGradient id="paint23_linear_1_11" x1="106.005" y1="132.482" x2="50.4432" y2="-5.76502" gradientUnits="userSpaceOnUse">
<stop stop-color="#FFA434"/>
<stop offset="1" stop-color="#FFA434"/>
</linearGradient>
<linearGradient id="paint24_linear_1_11" x1="38.076" y1="152.509" x2="-17.486" y2="14.2617" gradientUnits="userSpaceOnUse">
<stop stop-color="#FFA434"/>
<stop offset="1" stop-color="#FFA434"/>
</linearGradient>
<linearGradient id="paint25_linear_1_11" x1="38.076" y1="152.509" x2="-17.486" y2="14.2615" gradientUnits="userSpaceOnUse">
<stop stop-color="#FFA434"/>
<stop offset="1" stop-color="#FFA434"/>
</linearGradient>
<linearGradient id="paint26_linear_1_11" x1="60.7189" y1="152.509" x2="5.15693" y2="14.2617" gradientUnits="userSpaceOnUse">
<stop stop-color="#FFA434"/>
<stop offset="1" stop-color="#FFA434"/>
</linearGradient>
<linearGradient id="paint27_linear_1_11" x1="60.7193" y1="152.509" x2="5.1573" y2="14.2614" gradientUnits="userSpaceOnUse">
<stop stop-color="#FFA434"/>
<stop offset="1" stop-color="#FFA434"/>
</linearGradient>
<linearGradient id="paint28_linear_1_11" x1="83.3617" y1="152.509" x2="27.7998" y2="14.2617" gradientUnits="userSpaceOnUse">
<stop stop-color="#FFA434"/>
<stop offset="1" stop-color="#FFA434"/>
</linearGradient>
<linearGradient id="paint29_linear_1_11" x1="83.3624" y1="152.509" x2="27.8004" y2="14.2614" gradientUnits="userSpaceOnUse">
<stop stop-color="#FFA434"/>
<stop offset="1" stop-color="#FFA434"/>
</linearGradient>
<linearGradient id="paint30_linear_1_11" x1="106.005" y1="152.509" x2="50.4426" y2="14.2617" gradientUnits="userSpaceOnUse">
<stop stop-color="#FFA434"/>
<stop offset="1" stop-color="#FFA434"/>
</linearGradient>
<linearGradient id="paint31_linear_1_11" x1="106.005" y1="152.509" x2="50.4432" y2="14.2614" gradientUnits="userSpaceOnUse">
<stop stop-color="#FFA434"/>
<stop offset="1" stop-color="#FFA434"/>
</linearGradient>
</defs>
</svg>
